<svg id="Layer_1" enable-background="new 0 0 512.001 512.001" height="512" viewBox="0 0 512.001 512.001" width="512" xmlns="http://www.w3.org/2000/svg"><g><g clip-rule="evenodd" fill-rule="evenodd"><ellipse cx="346" cy="120.001" fill="#ff5a58" rx="70" ry="70" transform="matrix(.973 -.23 .23 .973 -18.315 82.705)"/><path d="m346 190.001c-38.66 0-70-31.34-70-70s31.34-70 70-70 70 31.34 70 70-31.34 70-70 70zm-219.999 259.999h269.998 50.002c5.5 0 10-4.499 10-10v-420c0-5.5-4.5-10-10-10h-320c-5.5 0-10 4.5-10 10v42.002 377.998c0 5.5 4.5 10 10 10z" fill="#fff"/><path d="m116.001 440v-377.998h-50.002c-5.5 0-10 4.5-10 10v420.001c0 5.5 4.5 10 10 10h320c5.5 0 10-4.499 10-10v-42.003h-269.998c-5.5 0-10-4.5-10-10z" fill="#c5d3de"/></g><g><path d="m446.002 0h-320.001c-11.027 0-19.999 8.972-19.999 20v32.002h-.001-40.002c-11.027 0-19.999 8.972-19.999 20v420c0 11.028 8.972 20 19.999 20h320.001c11.027 0 19.999-8.972 19.999-20v-32.002h40.003c11.028 0 20-8.972 20-20v-420c0-11.028-8.972-20-20-20zm-60.002 492.001h-320l-.001-420h40.002.001v367.999c0 11.028 8.972 20 19.999 20h259.998zm60.002-52.001h-320l-.003-420h320.003z"/><path d="m326 158.126c5.522 0 10-4.477 10-10v-10h20v10c0 5.523 4.478 10 10 10s10-4.477 10-10v-39.999c0-16.542-13.458-30-30-30s-30 13.458-30 30v39.999c0 5.523 4.477 10 10 10zm10-49.999c0-5.514 4.486-10 10-10s10 4.486 10 10v9.999h-20z"/><path d="m346 200.001c44.112 0 80.001-35.888 80.001-80s-35.889-80-80.001-80-80 35.888-80 80 35.887 80 80 80zm0-140c33.085 0 60.001 26.916 60.001 60s-26.916 60-60.001 60c-33.084 0-60-26.916-60-60s26.916-60 60-60z"/><path d="m156.003 72.002h74.501c5.522 0 10-4.477 10-10s-4.478-10-10-10h-74.501c-5.522 0-10 4.477-10 10s4.477 10 10 10z"/><path d="m156.003 114.668h47.499c5.522 0 10-4.477 10-10s-4.478-10-10-10h-47.499c-5.522 0-10 4.477-10 10s4.477 10 10 10z"/><path d="m156.003 200h74.501c5.522 0 10-4.477 10-10s-4.478-10-10-10h-74.501c-5.522 0-10 4.477-10 10s4.477 10 10 10z"/><path d="m416 262h-215.001c-5.522 0-10 4.477-10 10s4.478 10 10 10h215.001c5.522 0 10-4.477 10-10s-4.478-10-10-10z"/><path d="m416 304.666h-259.997c-5.522 0-10 4.477-10 10s4.478 10 10 10h259.997c5.522 0 10-4.477 10-10s-4.478-10-10-10z"/><path d="m286.002 347.332h-129.999c-5.522 0-10 4.477-10 10s4.478 10 10 10h129.999c5.522 0 10-4.477 10-10s-4.478-10-10-10z"/><path d="m286.002 389.998h-129.999c-5.522 0-10 4.477-10 10s4.478 10 10 10h129.999c5.522 0 10-4.477 10-10s-4.478-10-10-10z"/><path d="m156.003 282c5.522 0 10-4.477 10-10s-4.478-10-10-10h-.008c-5.522 0-9.996 4.477-9.996 10s4.481 10 10.004 10z"/></g></g></svg>